# Blender 5.0.1
# www.blender.org
mtllib sky.mtl
o Sphere
v 0.000000 100.000000 0.000000
v -0.000000 70.710678 70.710678
v 0.000000 38.268345 92.387947
v 0.000000 0.000000 100.000000
v 0.000000 -38.268345 92.387947
v 0.000000 -92.387947 38.268345
v 0.000000 -100.000000 0.000000
v -14.644663 92.387947 35.355339
v -27.059807 70.710678 65.328148
v -35.355339 38.268345 85.355324
v -38.268345 -0.000000 92.387947
v -35.355339 -38.268345 85.355331
v -27.059807 -70.710678 65.328140
v -14.644663 -92.387947 35.355335
v -27.059807 92.387947 27.059803
v -50.000000 70.710678 49.999992
v -65.328148 38.268345 65.328140
v -70.710678 0.000000 70.710670
v -65.328148 -38.268345 65.328148
v -50.000000 -70.710678 49.999996
v -27.059807 -92.387947 27.059801
v -35.355339 92.387947 14.644657
v -65.328140 70.710678 27.059801
v -85.355331 38.268345 35.355331
v -92.387955 0.000000 38.268333
v -85.355331 -38.268345 35.355331
v -65.328140 -70.710678 27.059801
v -35.355339 -92.387947 14.644658
v -38.268341 92.387947 -0.000004
v -70.710670 70.710678 -0.000002
v -92.387939 38.268345 -0.000008
v -100.000000 0.000000 -0.000015
v -92.387939 -38.268345 -0.000008
v -70.710670 -70.710678 -0.000002
v -38.268341 -92.387947 -0.000004
v -35.355335 92.387947 -14.644666
v -65.328140 70.710678 -27.059805
v -85.355324 38.268345 -35.355343
v -92.387939 0.000000 -38.268360
v -85.355324 -38.268345 -35.355343
v -65.328140 -70.710678 -27.059805
v -35.355335 -92.387947 -14.644665
v -27.059799 92.387947 -27.059807
v -49.999992 70.710678 -50.000004
v -65.328125 38.268345 -65.328148
v -70.710655 0.000000 -70.710693
v -65.328125 -38.268345 -65.328140
v -49.999992 -70.710678 -50.000000
v -27.059799 -92.387947 -27.059809
v -14.644654 92.387947 -35.355339
v -27.059797 70.710678 -65.328140
v -35.355316 38.268345 -85.355339
v -38.268311 -0.000000 -92.387962
v -35.355316 -38.268345 -85.355331
v -27.059797 -70.710678 -65.328148
v -14.644654 -92.387947 -35.355343
v 0.000008 92.387947 -38.268341
v 0.000006 70.710678 -70.710670
v 0.000023 38.268345 -92.387932
v 0.000034 0.000000 -100.000000
v 0.000023 -38.268345 -92.387932
v 0.000006 -70.710678 -70.710670
v 0.000008 -92.387947 -38.268341
v 14.644668 92.387947 -35.355328
v 27.059809 70.710678 -65.328133
v 35.355354 38.268345 -85.355309
v 38.268375 0.000000 -92.387932
v 35.355354 -38.268345 -85.355301
v 27.059809 -70.710678 -65.328140
v 14.644668 -92.387947 -35.355331
v 27.059809 92.387947 -27.059793
v 50.000000 70.710678 -49.999992
v 65.328156 38.268345 -65.328117
v 70.710701 -0.000000 -70.710640
v 65.328156 -38.268345 -65.328110
v 50.000000 -70.710678 -49.999989
v 27.059809 -92.387947 -27.059795
v 35.355339 92.387947 -14.644650
v 65.328140 70.710678 -27.059797
v 85.355331 38.268345 -35.355297
v 92.387962 0.000000 -38.268295
v 85.355331 -38.268345 -35.355297
v 65.328140 -70.710678 -27.059797
v 35.355339 -92.387947 -14.644649
v 38.268341 92.387947 0.000011
v 70.710670 70.710678 0.000006
v 92.387924 38.268345 0.000038
v 99.999992 0.000000 0.000050
v 92.387924 -38.268345 0.000038
v 70.710670 -70.710678 0.000006
v 38.268341 -92.387947 0.000011
v 35.355331 92.387947 14.644671
v 65.328140 70.710678 27.059809
v 85.355293 38.268345 35.355366
v 92.387932 0.000000 38.268387
v 85.355293 -38.268345 35.355366
v 65.328140 -70.710678 27.059809
v 35.355331 -92.387947 14.644672
v 27.059793 92.387947 27.059814
v 49.999992 70.710678 50.000000
v 65.328094 38.268345 65.328148
v 70.710640 0.000000 70.710709
v 65.328094 -38.268345 65.328156
v 49.999992 -70.710678 50.000004
v 27.059793 -92.387947 27.059813
v 14.644646 92.387947 35.355343
v 27.059797 70.710678 65.328148
v 35.355282 38.268345 85.355324
v 38.268291 0.000000 92.387962
v 35.355282 -38.268345 85.355331
v 27.059797 -70.710678 65.328140
v 14.644646 -92.387947 35.355339
v -0.000015 92.387947 38.268337
v -0.000006 -70.710678 70.710670
vn -0.1098 -0.8264 0.5522
vn -0.1915 -0.1915 0.9626
vn -0.1632 0.5481 0.8203
vn -0.0388 0.9800 0.1949
vn -0.0388 -0.9800 0.1949
vn -0.1632 -0.5481 0.8203
vn -0.1915 0.1915 0.9626
vn -0.1098 0.8264 0.5522
vn -0.1104 -0.9800 0.1653
vn -0.4647 -0.5481 0.6954
vn -0.5453 0.1915 0.8161
vn -0.3128 0.8264 0.4681
vn -0.3128 -0.8264 0.4681
vn -0.5453 -0.1915 0.8161
vn -0.4647 0.5481 0.6954
vn -0.1104 0.9800 0.1653
vn -0.8161 0.1915 0.5453
vn -0.4681 0.8264 0.3128
vn -0.4681 -0.8264 0.3128
vn -0.8161 -0.1915 0.5453
vn -0.6954 0.5481 0.4647
vn -0.1653 0.9800 0.1104
vn -0.1653 -0.9800 0.1104
vn -0.6954 -0.5481 0.4647
vn -0.5522 -0.8264 0.1098
vn -0.9626 -0.1915 0.1915
vn -0.8203 0.5481 0.1632
vn -0.1949 0.9800 0.0388
vn -0.1949 -0.9800 0.0388
vn -0.8203 -0.5481 0.1632
vn -0.9626 0.1915 0.1915
vn -0.5522 0.8264 0.1098
vn -0.8203 0.5481 -0.1632
vn -0.1949 0.9800 -0.0388
vn -0.1949 -0.9800 -0.0388
vn -0.8203 -0.5481 -0.1632
vn -0.9626 0.1915 -0.1915
vn -0.5522 0.8264 -0.1098
vn -0.5522 -0.8264 -0.1098
vn -0.9626 -0.1915 -0.1915
vn -0.1653 -0.9800 -0.1104
vn -0.6954 -0.5481 -0.4647
vn -0.8161 0.1915 -0.5453
vn -0.4681 0.8264 -0.3128
vn -0.4681 -0.8264 -0.3128
vn -0.8161 -0.1915 -0.5453
vn -0.6954 0.5481 -0.4647
vn -0.1653 0.9800 -0.1104
vn -0.3128 0.8264 -0.4681
vn -0.3128 -0.8264 -0.4681
vn -0.5453 -0.1915 -0.8161
vn -0.4647 0.5481 -0.6954
vn -0.1104 0.9800 -0.1653
vn -0.1104 -0.9800 -0.1653
vn -0.4647 -0.5481 -0.6954
vn -0.5453 0.1915 -0.8161
vn -0.1098 -0.8264 -0.5522
vn -0.1915 -0.1915 -0.9626
vn -0.1632 0.5481 -0.8203
vn -0.0388 0.9800 -0.1949
vn -0.0388 -0.9800 -0.1949
vn -0.1632 -0.5481 -0.8203
vn -0.1915 0.1915 -0.9626
vn -0.1098 0.8264 -0.5522
vn 0.0388 0.9800 -0.1949
vn 0.0388 -0.9800 -0.1949
vn 0.1632 -0.5481 -0.8203
vn 0.1915 0.1915 -0.9626
vn 0.1098 0.8264 -0.5522
vn 0.1098 -0.8264 -0.5522
vn 0.1915 -0.1915 -0.9626
vn 0.1632 0.5481 -0.8203
vn 0.4647 -0.5481 -0.6954
vn 0.5453 0.1915 -0.8161
vn 0.3128 0.8264 -0.4681
vn 0.3128 -0.8264 -0.4681
vn 0.5453 -0.1915 -0.8161
vn 0.4647 0.5481 -0.6954
vn 0.1104 0.9800 -0.1653
vn 0.1104 -0.9800 -0.1653
vn 0.4681 -0.8264 -0.3128
vn 0.8161 -0.1915 -0.5453
vn 0.6954 0.5481 -0.4647
vn 0.1653 0.9800 -0.1104
vn 0.1653 -0.9800 -0.1104
vn 0.6954 -0.5481 -0.4647
vn 0.8161 0.1915 -0.5453
vn 0.4681 0.8264 -0.3128
vn 0.9626 -0.1915 -0.1915
vn 0.8203 0.5481 -0.1632
vn 0.1949 0.9800 -0.0388
vn 0.1949 -0.9800 -0.0388
vn 0.8203 -0.5481 -0.1632
vn 0.9626 0.1915 -0.1915
vn 0.5522 0.8264 -0.1098
vn 0.5522 -0.8264 -0.1098
vn 0.1949 -0.9800 0.0388
vn 0.8203 -0.5481 0.1632
vn 0.9626 0.1915 0.1915
vn 0.5522 0.8264 0.1098
vn 0.5522 -0.8264 0.1098
vn 0.9626 -0.1915 0.1915
vn 0.8203 0.5481 0.1632
vn 0.1949 0.9800 0.0388
vn 0.8161 0.1915 0.5453
vn 0.4681 0.8264 0.3128
vn 0.4681 -0.8264 0.3128
vn 0.8161 -0.1915 0.5453
vn 0.6954 0.5481 0.4647
vn 0.1653 0.9800 0.1104
vn 0.1653 -0.9800 0.1104
vn 0.6954 -0.5481 0.4647
vn 0.3128 -0.8264 0.4681
vn 0.5453 -0.1915 0.8161
vn 0.4647 0.5481 0.6954
vn 0.1104 0.9800 0.1653
vn 0.1104 -0.9800 0.1653
vn 0.4647 -0.5481 0.6954
vn 0.5453 0.1915 0.8161
vn 0.3128 0.8264 0.4681
vn 0.1632 0.5481 0.8203
vn 0.0388 0.9800 0.1949
vn 0.0388 -0.9800 0.1949
vn 0.1632 -0.5481 0.8203
vn 0.1915 0.1915 0.9626
vn 0.1098 0.8264 0.5522
vn 0.1098 -0.8264 0.5522
vn 0.1915 -0.1915 0.9626
vt 0.750000 0.125000
vt 0.750000 0.250000
vt 0.687500 0.250000
vt 0.687500 0.125000
vt 0.750000 0.375000
vt 0.750000 0.500000
vt 0.687500 0.500000
vt 0.687500 0.375000
vt 0.750000 0.625000
vt 0.750000 0.750000
vt 0.687500 0.750000
vt 0.687500 0.625000
vt 0.750000 0.875000
vt 0.718750 1.000000
vt 0.687500 0.875000
vt 0.718750 0.000000
vt 0.656250 0.000000
vt 0.625000 0.125000
vt 0.625000 0.375000
vt 0.625000 0.250000
vt 0.625000 0.625000
vt 0.625000 0.500000
vt 0.625000 0.875000
vt 0.625000 0.750000
vt 0.656250 1.000000
vt 0.562500 0.625000
vt 0.562500 0.500000
vt 0.562500 0.875000
vt 0.562500 0.750000
vt 0.562500 0.250000
vt 0.562500 0.125000
vt 0.562500 0.375000
vt 0.593750 1.000000
vt 0.593750 0.000000
vt 0.500000 0.250000
vt 0.500000 0.125000
vt 0.500000 0.500000
vt 0.500000 0.375000
vt 0.500000 0.750000
vt 0.500000 0.625000
vt 0.531250 1.000000
vt 0.500000 0.875000
vt 0.531250 0.000000
vt 0.437500 0.750000
vt 0.437500 0.625000
vt 0.468750 1.000000
vt 0.437500 0.875000
vt 0.468750 0.000000
vt 0.437500 0.125000
vt 0.437500 0.375000
vt 0.437500 0.250000
vt 0.437500 0.500000
vt 0.406250 0.000000
vt 0.375000 0.125000
vt 0.375000 0.375000
vt 0.375000 0.250000
vt 0.375000 0.625000
vt 0.375000 0.500000
vt 0.375000 0.875000
vt 0.375000 0.750000
vt 0.406250 1.000000
vt 0.312500 0.875000
vt 0.312500 0.750000
vt 0.312500 0.250000
vt 0.312500 0.125000
vt 0.312500 0.500000
vt 0.312500 0.375000
vt 0.312500 0.625000
vt 0.343750 1.000000
vt 0.343750 0.000000
vt 0.250000 0.250000
vt 0.250000 0.125000
vt 0.250000 0.500000
vt 0.250000 0.375000
vt 0.250000 0.750000
vt 0.250000 0.625000
vt 0.281250 1.000000
vt 0.250000 0.875000
vt 0.281250 0.000000
vt 0.218750 1.000000
vt 0.187500 0.875000
vt 0.218750 0.000000
vt 0.187500 0.125000
vt 0.187500 0.375000
vt 0.187500 0.250000
vt 0.187500 0.625000
vt 0.187500 0.500000
vt 0.187500 0.750000
vt 0.125000 0.375000
vt 0.125000 0.250000
vt 0.125000 0.625000
vt 0.125000 0.500000
vt 0.125000 0.875000
vt 0.125000 0.750000
vt 0.125000 0.125000
vt 0.156250 1.000000
vt 0.156250 0.000000
vt 0.062500 0.250000
vt 0.062500 0.125000
vt 0.062500 0.500000
vt 0.062500 0.375000
vt 0.062500 0.750000
vt 0.062500 0.625000
vt 0.093750 1.000000
vt 0.062500 0.875000
vt 0.093750 0.000000
vt 0.000000 0.500000
vt 0.000000 0.375000
vt 0.000000 0.750000
vt 0.000000 0.625000
vt 0.031250 1.000000
vt 0.000000 0.875000
vt 0.031250 0.000000
vt 0.000000 0.125000
vt 0.000000 0.250000
vt 0.968750 0.000000
vt 1.000000 0.125000
vt 0.937500 0.125000
vt 1.000000 0.250000
vt 1.000000 0.375000
vt 0.937500 0.375000
vt 0.937500 0.250000
vt 1.000000 0.500000
vt 1.000000 0.625000
vt 0.937500 0.625000
vt 0.937500 0.500000
vt 1.000000 0.750000
vt 1.000000 0.875000
vt 0.937500 0.875000
vt 0.937500 0.750000
vt 0.968750 1.000000
vt 0.875000 0.625000
vt 0.875000 0.500000
vt 0.875000 0.875000
vt 0.875000 0.750000
vt 0.875000 0.250000
vt 0.875000 0.125000
vt 0.875000 0.375000
vt 0.906250 1.000000
vt 0.906250 0.000000
vt 0.812500 0.250000
vt 0.812500 0.125000
vt 0.812500 0.500000
vt 0.812500 0.375000
vt 0.812500 0.750000
vt 0.812500 0.625000
vt 0.843750 1.000000
vt 0.812500 0.875000
vt 0.843750 0.000000
vt 0.781250 1.000000
vt 0.781250 0.000000
s 0
usemtl sky
f 6/1/1 114/2/1 13/3/1 14/4/1
f 5/5/2 4/6/2 11/7/2 12/8/2
f 3/9/3 2/10/3 9/11/3 10/12/3
f 113/13/4 1/14/4 8/15/4
f 7/16/5 6/1/5 14/4/5
f 114/2/6 5/5/6 12/8/6 13/3/6
f 4/6/7 3/9/7 10/12/7 11/7/7
f 2/10/8 113/13/8 8/15/8 9/11/8
f 7/17/9 14/4/9 21/18/9
f 13/3/10 12/8/10 19/19/10 20/20/10
f 11/7/11 10/12/11 17/21/11 18/22/11
f 9/11/12 8/15/12 15/23/12 16/24/12
f 14/4/13 13/3/13 20/20/13 21/18/13
f 12/8/14 11/7/14 18/22/14 19/19/14
f 10/12/15 9/11/15 16/24/15 17/21/15
f 8/15/16 1/25/16 15/23/16
f 18/22/17 17/21/17 24/26/17 25/27/17
f 16/24/18 15/23/18 22/28/18 23/29/18
f 21/18/19 20/20/19 27/30/19 28/31/19
f 19/19/20 18/22/20 25/27/20 26/32/20
f 17/21/21 16/24/21 23/29/21 24/26/21
f 15/23/22 1/33/22 22/28/22
f 7/34/23 21/18/23 28/31/23
f 20/20/24 19/19/24 26/32/24 27/30/24
f 28/31/25 27/30/25 34/35/25 35/36/25
f 26/32/26 25/27/26 32/37/26 33/38/26
f 24/26/27 23/29/27 30/39/27 31/40/27
f 22/28/28 1/41/28 29/42/28
f 7/43/29 28/31/29 35/36/29
f 27/30/30 26/32/30 33/38/30 34/35/30
f 25/27/31 24/26/31 31/40/31 32/37/31
f 23/29/32 22/28/32 29/42/32 30/39/32
f 31/40/33 30/39/33 37/44/33 38/45/33
f 29/42/34 1/46/34 36/47/34
f 7/48/35 35/36/35 42/49/35
f 34/35/36 33/38/36 40/50/36 41/51/36
f 32/37/37 31/40/37 38/45/37 39/52/37
f 30/39/38 29/42/38 36/47/38 37/44/38
f 35/36/39 34/35/39 41/51/39 42/49/39
f 33/38/40 32/37/40 39/52/40 40/50/40
f 7/53/41 42/49/41 49/54/41
f 41/51/42 40/50/42 47/55/42 48/56/42
f 39/52/43 38/45/43 45/57/43 46/58/43
f 37/44/44 36/47/44 43/59/44 44/60/44
f 42/49/45 41/51/45 48/56/45 49/54/45
f 40/50/46 39/52/46 46/58/46 47/55/46
f 38/45/47 37/44/47 44/60/47 45/57/47
f 36/47/48 1/61/48 43/59/48
f 44/60/49 43/59/49 50/62/49 51/63/49
f 49/54/50 48/56/50 55/64/50 56/65/50
f 47/55/51 46/58/51 53/66/51 54/67/51
f 45/57/52 44/60/52 51/63/52 52/68/52
f 43/59/53 1/69/53 50/62/53
f 7/70/54 49/54/54 56/65/54
f 48/56/55 47/55/55 54/67/55 55/64/55
f 46/58/56 45/57/56 52/68/56 53/66/56
f 56/65/57 55/64/57 62/71/57 63/72/57
f 54/67/58 53/66/58 60/73/58 61/74/58
f 52/68/59 51/63/59 58/75/59 59/76/59
f 50/62/60 1/77/60 57/78/60
f 7/79/61 56/65/61 63/72/61
f 55/64/62 54/67/62 61/74/62 62/71/62
f 53/66/63 52/68/63 59/76/63 60/73/63
f 51/63/64 50/62/64 57/78/64 58/75/64
f 57/78/65 1/80/65 64/81/65
f 7/82/66 63/72/66 70/83/66
f 62/71/67 61/74/67 68/84/67 69/85/67
f 60/73/68 59/76/68 66/86/68 67/87/68
f 58/75/69 57/78/69 64/81/69 65/88/69
f 63/72/70 62/71/70 69/85/70 70/83/70
f 61/74/71 60/73/71 67/87/71 68/84/71
f 59/76/72 58/75/72 65/88/72 66/86/72
f 69/85/73 68/84/73 75/89/73 76/90/73
f 67/87/74 66/86/74 73/91/74 74/92/74
f 65/88/75 64/81/75 71/93/75 72/94/75
f 70/83/76 69/85/76 76/90/76 77/95/76
f 68/84/77 67/87/77 74/92/77 75/89/77
f 66/86/78 65/88/78 72/94/78 73/91/78
f 64/81/79 1/96/79 71/93/79
f 7/97/80 70/83/80 77/95/80
f 77/95/81 76/90/81 83/98/81 84/99/81
f 75/89/82 74/92/82 81/100/82 82/101/82
f 73/91/83 72/94/83 79/102/83 80/103/83
f 71/93/84 1/104/84 78/105/84
f 7/106/85 77/95/85 84/99/85
f 76/90/86 75/89/86 82/101/86 83/98/86
f 74/92/87 73/91/87 80/103/87 81/100/87
f 72/94/88 71/93/88 78/105/88 79/102/88
f 82/101/89 81/100/89 88/107/89 89/108/89
f 80/103/90 79/102/90 86/109/90 87/110/90
f 78/105/91 1/111/91 85/112/91
f 7/113/92 84/99/92 91/114/92
f 83/98/93 82/101/93 89/108/93 90/115/93
f 81/100/94 80/103/94 87/110/94 88/107/94
f 79/102/95 78/105/95 85/112/95 86/109/95
f 84/99/96 83/98/96 90/115/96 91/114/96
f 7/116/97 91/117/97 98/118/97
f 90/119/98 89/120/98 96/121/98 97/122/98
f 88/123/99 87/124/99 94/125/99 95/126/99
f 86/127/100 85/128/100 92/129/100 93/130/100
f 91/117/101 90/119/101 97/122/101 98/118/101
f 89/120/102 88/123/102 95/126/102 96/121/102
f 87/124/103 86/127/103 93/130/103 94/125/103
f 85/128/104 1/131/104 92/129/104
f 95/126/105 94/125/105 101/132/105 102/133/105
f 93/130/106 92/129/106 99/134/106 100/135/106
f 98/118/107 97/122/107 104/136/107 105/137/107
f 96/121/108 95/126/108 102/133/108 103/138/108
f 94/125/109 93/130/109 100/135/109 101/132/109
f 92/129/110 1/139/110 99/134/110
f 7/140/111 98/118/111 105/137/111
f 97/122/112 96/121/112 103/138/112 104/136/112
f 105/137/113 104/136/113 111/141/113 112/142/113
f 103/138/114 102/133/114 109/143/114 110/144/114
f 101/132/115 100/135/115 107/145/115 108/146/115
f 99/134/116 1/147/116 106/148/116
f 7/149/117 105/137/117 112/142/117
f 104/136/118 103/138/118 110/144/118 111/141/118
f 102/133/119 101/132/119 108/146/119 109/143/119
f 100/135/120 99/134/120 106/148/120 107/145/120
f 108/146/121 107/145/121 2/10/121 3/9/121
f 106/148/122 1/150/122 113/13/122
f 7/151/123 112/142/123 6/1/123
f 111/141/124 110/144/124 5/5/124 114/2/124
f 109/143/125 108/146/125 3/9/125 4/6/125
f 107/145/126 106/148/126 113/13/126 2/10/126
f 112/142/127 111/141/127 114/2/127 6/1/127
f 110/144/128 109/143/128 4/6/128 5/5/128
